<?xml version="1.0" encoding="utf-8"?>
<!-- Uploaded to: SVG Repo, www.svgrepo.com, Generator: SVG Repo Mixer Tools -->
<svg width="800px" height="800px" viewBox="0 0 1024 1024" class="icon"  version="1.1" xmlns="http://www.w3.org/2000/svg"><path d="M973.3 98.4L99.6 972.1c-11.7 11.7-30.9 11.7-42.6 0l-4.3-4.3C41 956 41 936.9 52.7 925.2L926.4 51.5c11.7-11.7 30.9-11.7 42.6 0l4.3 4.3c11.7 11.8 11.7 30.9 0 42.6z" fill="#B6CDEF" /><path d="M78.3 996.1c-12.7 0-25.4-4.8-35.1-14.5-19.4-19.4-19.4-50.9 0-70.2L912.5 42c19.4-19.4 50.9-19.4 70.2 0 9.4 9.4 14.5 21.8 14.5 35.1s-5.2 25.8-14.5 35.1L113.5 981.6c-9.7 9.7-22.4 14.5-35.2 14.5zM947.7 60.5c-4.3 0-8.5 1.6-11.8 4.9L66.6 934.7c-6.5 6.5-6.5 17 0 23.5s17 6.5 23.5 0L959.4 88.9c3.1-3.1 4.8-7.3 4.8-11.8 0-4.5-1.7-8.6-4.8-11.8-3.2-3.2-7.5-4.8-11.7-4.8z" fill="#0F53A8" /><path d="M408.6 901.7l-53.9 53.9c-8.7 8.7-22.7 8.7-31.3 0L69.2 701.4c-8.7-8.7-8.7-22.7 0-31.3l53.9-53.9c8.7-8.7 22.7-8.7 31.3 0l254.2 254.2c8.7 8.6 8.7 22.7 0 31.3z" fill="#89B7F5" /><path d="M339 977.7c-10.5 0-21-4-28.9-12l-251-251c-7.7-7.7-12-18-12-28.9 0-10.9 4.3-21.2 12-28.9l50.7-50.7c16-16 41.9-16 57.9 0l251 251c16 16 16 41.9 0 57.9L368 965.7c-8 8-18.5 12-29 12zM138.8 627.2c-2 0-4 0.8-5.6 2.3l-50.7 50.7c-2 2-2.3 4.4-2.3 5.6 0 1.2 0.3 3.6 2.3 5.6l251 251c3.1 3.1 8.1 3.1 11.1 0l50.7-50.7c3.1-3.1 3.1-8.1 0-11.1l-251-251c-1.5-1.7-3.5-2.4-5.5-2.4z" fill="#0F53A8" /><path d="M276.4 940l-34.1 34.1c-8.7 8.7-22.7 8.7-31.3 0L50.7 813.8c-8.7-8.7-8.7-22.7 0-31.3l34.1-34.1c8.7-8.7 22.7-8.7 31.3 0l160.3 160.3c8.7 8.6 8.7 22.6 0 31.3z" fill="#89B7F5" /><path d="M226.7 996.2c-10.9 0-21.2-4.3-28.9-12L40.6 827.1c-16-16-16-41.9 0-57.9l30.9-30.9c16-16 41.9-16 57.9 0l157.1 157.1c7.7 7.7 12 18 12 28.9 0 10.9-4.3 21.2-12 28.9l-30.9 30.9c-7.7 7.8-18 12.1-28.9 12.1zM100.5 759.3c-2 0-4 0.8-5.6 2.3l-30.9 31c-3.1 3.1-3.1 8.1 0 11.1l157.1 157.1c3.1 3.1 8.1 3.1 11.1 0l30.9-30.9c2-2 2.3-4.4 2.3-5.6 0-1.2-0.3-3.6-2.3-5.6L106 761.6c-1.5-1.5-3.5-2.3-5.5-2.3z" fill="#0F53A8" /><path d="M902.9 407.4l53.9-53.9c8.7-8.7 8.7-22.7 0-31.3L702.6 68c-8.7-8.7-22.7-8.7-31.3 0l-53.9 53.9c-8.7 8.7-8.7 22.7 0 31.3l254.2 254.2c8.6 8.6 22.7 8.6 31.3 0z" fill="#89B7F5" /><path d="M887.2 429.5c-10.5 0-21-4-28.9-12l-251-251c-16-16-16-41.9 0-57.9L658 57.9c16-16 41.9-16 57.9 0l251 251c16 16 16 41.9 0 57.9l-50.7 50.7c-8 8-18.5 12-29 12zM687 79c-2 0-4 0.8-5.6 2.3L630.7 132c-3.1 3.1-3.1 8.1 0 11.1l251 251c3.1 3.1 8.1 3.1 11.1 0l50.7-50.7c3.1-3.1 3.1-8.1 0-11.1l-251-251C691 79.7 689 79 687 79z" fill="#0F53A8" /><path d="M941.2 275.2l34.1-34.1c8.7-8.7 8.7-22.7 0-31.3L815 49.5c-8.7-8.7-22.7-8.7-31.3 0l-34.1 34.1c-8.7 8.7-8.7 22.7 0 31.3l160.3 160.3c8.6 8.7 22.6 8.7 31.3 0z" fill="#89B7F5" /><path d="M925.5 297.3c-10.9 0-21.2-4.3-28.9-12L739.5 128.2c-16-16-16-41.9 0-57.9l30.9-30.9c16-16 41.9-16 57.9 0l157.1 157.1c7.7 7.7 12 18 12 28.9 0 10.9-4.3 21.2-12 28.9l-30.9 30.9c-7.8 7.8-18 12.1-29 12.1zM799.3 60.5c-2 0-4 0.8-5.6 2.3l-30.9 30.9c-3.1 3.1-3.1 8.1 0 11.1L920 262c3.1 3.1 8.1 3.1 11.1 0l30.9-31c3.1-3.1 3.1-8.1 0-11.1L804.9 62.8c-1.5-1.6-3.5-2.3-5.6-2.3z" fill="#0F53A8" /></svg>